<svg width="189" height="32" viewBox="0 0 189 32" fill="none" xmlns="http://www.w3.org/2000/svg">
<path d="M137 15.9846C137 11.1364 137 6.28724 137 1.43739C137 1.09457 137.08 1 137.439 1C143.325 1.01419 149.205 1.01419 155.081 1C155.43 1 155.538 1.07093 155.529 1.42793C155.502 2.45165 155.505 3.47537 155.529 4.50145C155.529 4.84663 155.444 4.93884 155.086 4.93647C150.707 4.93647 146.331 4.93647 141.954 4.91756C141.558 4.91756 141.456 5.00031 141.471 5.3904C141.49 8.09038 141.49 10.7896 141.471 13.4879C141.471 13.8331 141.553 13.923 141.913 13.9206C146.183 13.9206 150.453 13.9206 154.721 13.904C155.074 13.904 155.175 13.9845 155.166 14.3367C155.139 15.3746 155.144 16.4125 155.166 17.4504C155.166 17.7648 155.084 17.8382 154.767 17.8358C150.494 17.8358 146.225 17.8358 141.959 17.8192C141.555 17.8192 141.476 17.9115 141.476 18.2921C141.495 21.0803 141.495 23.8686 141.476 26.6568C141.476 27.0067 141.567 27.0871 141.923 27.0871C146.466 27.0871 151.011 27.0871 155.555 27.0706C155.913 27.0706 156.007 27.1581 156 27.5033C155.973 28.5553 155.978 29.6097 156 30.6618C156 30.9432 155.92 31.0023 155.644 30.9999C149.55 30.9999 143.455 30.9999 137.36 30.9999C136.961 30.9999 137.017 30.799 137.017 30.5649C137.007 25.7087 137.002 20.8486 137 15.9846Z" fill="black"/>
<path d="M27.9991 24.0498C27.9991 25.6631 27.9991 27.2691 27.9991 28.8725C28.0048 28.9519 27.984 29.0311 27.9399 29.0973C27.8958 29.1637 27.8309 29.2133 27.7556 29.2386C25.5948 30.3498 23.2885 31.15 20.9049 31.6158C20.0479 31.7746 19.182 31.8805 18.3121 31.933C17.616 31.9956 16.9167 32.0144 16.2184 31.9892C13.9836 31.9062 11.7825 31.4158 9.72312 30.5419C8.01995 29.7941 6.44947 28.7737 5.07315 27.5205C2.92034 25.5727 1.36992 23.0469 0.605799 20.2425C0.311852 19.148 0.125133 18.0273 0.0482941 16.8965C-0.168379 14.3045 0.357478 11.8786 1.35563 9.52579C2.27028 7.47218 3.63007 5.64876 5.33608 4.18822C6.9892 2.7023 8.93972 1.58731 11.0572 0.917806C12.4069 0.492133 13.7987 0.214717 15.208 0.0904391C16.3772 -0.00951564 17.552 -0.0266422 18.7235 0.0391863C20.2442 0.120801 21.751 0.373776 23.2152 0.793334C24.6351 1.19808 26.0273 1.69456 27.3831 2.27967C27.4937 2.31178 27.5893 2.38211 27.653 2.47816C27.7167 2.57422 27.7445 2.68979 27.7312 2.8044C27.7167 4.30292 27.7312 5.8039 27.7312 7.35612C27.0885 7.04128 26.4653 6.75086 25.8518 6.43602C24.1205 5.56043 22.2799 4.92179 20.379 4.53723C18.9847 4.23828 17.5547 4.14292 16.1332 4.25411C13.4942 4.48597 11.0766 5.28161 9.00978 7.01932C7.30561 8.43731 6.03966 10.1262 5.35799 12.2374C5.04865 13.2353 4.86703 14.2686 4.81753 15.3125C4.65954 17.4628 5.11015 19.6141 6.11756 21.519C6.9685 23.0825 8.16244 24.432 9.60933 25.4657C11.0562 26.4994 12.7184 27.1902 14.4704 27.4862C15.7069 27.6976 16.966 27.7444 18.2147 27.6253C20.0686 27.445 21.8871 26.9986 23.6145 26.3001C25.0304 25.7301 26.388 25.0239 27.6679 24.1914C27.7673 24.1216 27.8801 24.0735 27.9991 24.0498Z" fill="black"/>
<path d="M115.996 1C120.501 1 125.004 1 129.509 1C129.899 1 130.012 1.07795 129.999 1.45353C129.966 2.50468 129.972 3.55821 129.999 4.60936C129.999 4.94242 129.916 5.02037 129.562 5.02037C125.974 5.00619 122.388 5.02037 118.8 5.00147C118.406 5.00147 118.315 5.08887 118.315 5.45737C118.329 13.8037 118.335 22.1499 118.333 30.4961C118.333 30.8929 118.24 31.011 117.803 30.9992C116.587 30.9685 115.37 30.9733 114.154 30.9992C113.757 30.9992 113.667 30.9142 113.667 30.5433C113.678 22.1971 113.685 13.8509 113.687 5.50461C113.687 5.11013 113.593 4.99911 113.157 5.00147C109.586 5.02037 106.013 5.00147 102.443 5.02037C102.093 5.02037 101.993 4.94951 102 4.61172C102.028 3.5464 102.025 2.48579 102 1.41102C102 1.07795 102.086 1 102.44 1.00236C106.956 1.00866 111.475 1.00787 115.996 1Z" fill="black"/>
<path d="M188.988 30.8534L185.835 26.2958C184.446 24.2852 183.075 22.2628 181.662 20.2664C180.724 18.9433 179.862 17.5446 178.358 16.7059C178.421 16.6351 178.508 16.5862 178.603 16.5665C179.83 16.1672 180.994 15.6215 181.939 14.7638C183.316 13.5021 183.884 11.879 183.992 10.1023C184.064 9.13633 184.009 8.16538 183.827 7.21282C183.664 6.30626 183.316 5.43989 182.802 4.66401C182.288 3.88812 181.62 3.21818 180.834 2.6931C179.087 1.51177 177.083 1.07705 175.014 1.03925C171.805 0.963643 168.591 1.02271 165.378 1.0109C165.076 1.0109 165 1.0865 165 1.37474C165 11.1277 165 20.8806 165 30.6336C165 30.9171 165.069 31.0046 165.375 30.9998C166.603 30.9809 167.848 30.9762 169.083 30.9998C169.468 30.9998 169.559 30.9148 169.556 30.5438C169.541 26.4093 169.556 22.2746 169.556 18.1376C169.556 18.036 169.556 17.9297 169.556 17.8281C169.556 17.7266 169.608 17.6462 169.745 17.6462C170.747 17.6627 171.746 17.6061 172.737 17.8825C174.307 18.3148 175.347 19.3875 176.293 20.5428C177.726 22.2959 178.915 24.2167 180.206 26.069C181.271 27.5953 182.309 29.1404 183.34 30.6856C183.388 30.7828 183.464 30.8642 183.559 30.9198C183.654 30.9754 183.765 31.0024 183.876 30.9975C184.819 30.9857 185.759 30.9975 186.702 30.9975H189C188.988 30.91 189 30.8746 188.988 30.8534ZM175.976 13.6345C175.171 13.8542 174.333 13.8565 173.503 13.9274C172.303 14.029 171.108 13.9416 169.912 14.0007C169.608 14.0149 169.529 13.9274 169.532 13.6369C169.549 12.2193 169.532 10.8017 169.532 9.36991C169.532 7.93815 169.532 6.53474 169.532 5.10298C169.532 4.81474 169.605 4.73441 169.91 4.73678C171.332 4.75331 172.755 4.68243 174.169 4.76276C175.532 4.84073 176.887 5.03447 177.992 5.94408C178.568 6.42119 178.97 7.06391 179.138 7.77749C179.492 8.98235 179.405 10.2675 178.892 11.4183C178.335 12.6587 177.265 13.2848 175.981 13.6345H175.976Z" fill="black"/>
<path d="M96.7921 7.50949C96.435 5.65346 95.356 4.0015 93.7785 2.89524C91.9222 1.58397 89.7638 1.08309 87.5202 1.03584C84.1657 0.964958 80.8088 1.02402 77.4519 1.00749C77.0865 1.00749 77.0085 1.10435 77.0085 1.44457C77.0199 6.28958 77.0199 11.1362 77.0085 15.9843C76.9972 20.8324 76.9972 25.694 77.0085 30.569C77.0085 30.921 77.1036 31.006 77.4592 30.9989C78.6066 30.9777 79.7564 30.9659 80.9063 30.9989C81.3594 31.0131 81.4446 30.8879 81.4422 30.4697C81.4227 26.4815 81.4422 22.4934 81.4203 18.5076C81.4203 18.1461 81.5299 18.0611 81.8758 18.0823C82.3508 18.1107 82.8259 18.1012 83.3009 18.0823C85.4934 18.0162 87.7127 18.2666 89.9003 17.8225C91.9174 17.4137 93.6835 16.6128 95.0743 15.0865C96.2755 13.7705 96.8136 12.2159 96.9553 10.5219C97.0495 9.51534 96.9945 8.50088 96.7921 7.50949ZM92.0343 11.3583C91.6104 12.7758 90.5458 13.5319 89.1451 13.9123C88.5531 14.0616 87.9479 14.1565 87.3375 14.1958C85.508 14.3423 83.6834 14.2312 81.8466 14.2832C81.5031 14.2832 81.4179 14.2052 81.4227 13.8721C81.4422 12.4356 81.4227 10.9991 81.4227 9.56264C81.4227 8.12614 81.4227 6.72746 81.4227 5.30987C81.4227 5.02872 81.4836 4.93657 81.793 4.93893C83.4154 4.95547 85.0403 4.91058 86.6651 4.96019C87.8685 4.99799 89.0842 5.12322 90.178 5.66899C91.3424 6.25257 91.9636 7.24488 92.1878 8.47818C92.3669 9.4368 92.3144 10.4226 92.0343 11.3583Z" fill="black"/>
<path d="M68.9824 15.653C68.9566 14.6707 68.8569 13.6915 68.6842 12.7234C68.3596 11.1221 67.7606 9.58538 66.9122 8.17771C65.9351 6.54935 64.6748 5.09879 63.1878 3.89077C62.3065 3.15233 61.344 2.51125 60.318 1.97923C57.7055 0.627036 54.7789 -0.0456644 51.8214 0.0261755C51.0835 -0.0311518 50.3412 0.00578134 49.6132 0.136034C48.0622 0.354327 46.5461 0.764525 45.1018 1.35669C43.4538 2.03839 41.9302 2.9758 40.5903 4.13246C38.8159 5.63438 37.3972 7.4935 36.4323 9.58147C35.5862 11.4199 35.1016 13.3965 35.0037 15.4089C34.984 16.3163 35.0435 17.2236 35.1816 18.1212C35.3656 19.6099 35.7832 21.0623 36.4197 22.4277C37.4157 24.5643 38.8864 26.4588 40.7257 27.9743C42.1148 29.1228 43.6792 30.0535 45.3624 30.733C47.342 31.515 49.4503 31.9425 51.5857 31.9952C52.1597 32.0171 52.7387 31.9586 53.3126 31.9317C54.5584 31.8733 55.7927 31.6709 56.9895 31.3286C60.5483 30.361 63.674 28.2648 65.872 25.3719C68.0533 22.5909 69.1549 19.1486 68.9824 15.653ZM51.5281 27.6765C48.3945 27.5758 45.4263 26.2825 43.2605 24.0744C41.0947 21.8662 39.904 18.9191 39.9437 15.8654C39.9437 9.4985 45.4401 3.99086 52.6735 4.25208C58.576 4.46203 64.1602 9.64736 64.0474 15.9899C64.1928 22.1786 58.7239 27.9621 51.5281 27.6765Z" fill="black"/>
<path d="M62.3843 15.0385C62.0709 14.3778 61.9105 13.6604 61.6119 12.9899C61.1548 11.9577 60.5695 10.9877 59.8698 10.1026C58.9278 8.92237 57.7098 7.9935 56.3239 7.39843C55.3983 6.94924 54.3902 6.69655 53.3627 6.65621C53.3316 6.66116 53.3001 6.66116 53.269 6.65621C52.6249 6.36426 52.7754 6.83929 52.7434 7.18072C52.7212 7.42812 52.8346 7.53204 53.0543 7.58894C53.8941 7.81159 54.7105 8.11484 55.4923 8.49446C57.9598 9.67211 59.7415 11.4163 60.3091 14.2047C60.3813 14.5147 60.3693 14.8385 60.2745 15.1424C60.0005 14.6476 59.744 14.123 59.4503 13.6306C58.7978 12.5155 57.9254 11.5455 56.8863 10.7797C55.8473 10.014 54.6635 9.46878 53.4072 9.17731C53.2344 9.13278 53.037 9.22927 52.8717 9.09072C52.8519 9.0734 52.7483 9.12041 52.7212 9.16246C52.5805 9.37276 52.6842 9.61277 52.6545 9.83794C52.6176 10.1348 52.7976 10.1521 53.0419 10.2115C54.281 10.4985 55.4194 11.1167 56.3362 12.0002C57.1555 12.8019 57.8439 13.7321 57.9722 14.9494C57.9722 15.0508 58.066 15.1522 57.9203 15.2091C57.7377 15.2809 57.7649 15.0904 57.7255 15.0236C57.0738 13.8489 56.0839 12.8988 54.8853 12.2971C54.2454 12.0003 53.5651 11.8003 52.8668 11.7034C52.7261 11.6811 52.5682 11.644 52.5558 11.9062C52.5089 12.8686 52.4324 13.8311 52.3782 14.796C52.4009 14.9774 52.4825 15.1462 52.6106 15.2763C52.7386 15.4065 52.9058 15.4907 53.0864 15.516C54.9198 15.516 56.7557 15.5951 58.5817 15.4936C59.9439 15.417 61.296 15.4813 62.6582 15.4219C62.905 15.4219 63.0135 15.4689 62.9987 15.7436C62.8704 18.2449 62.3324 20.6323 60.805 22.671C59.3393 24.6206 57.3356 25.7661 54.937 26.2436C54.2718 26.3925 53.5887 26.4442 52.9087 26.397C52.9463 26.3303 52.9988 26.2731 53.0622 26.2301C53.1256 26.1872 53.198 26.1597 53.2739 26.1496C54.8191 25.6978 56.2732 24.9776 57.57 24.0218C59.3587 22.6958 60.6226 20.7784 61.1381 18.6086C61.2524 18.028 61.3266 17.4402 61.3602 16.8495C61.3667 16.8234 61.3659 16.796 61.3582 16.7703C61.3503 16.7446 61.3357 16.7215 61.3158 16.7035C61.1012 16.5031 60.4669 16.6862 60.3879 16.9806C60.0899 18.0977 59.6504 19.172 59.0802 20.1772C57.8464 22.384 56.0426 23.8116 53.533 24.2841C53.3098 24.3052 53.0851 24.3052 52.8618 24.2841C52.8346 24.0516 53.0123 24.054 53.0962 24.0169C54.4688 23.4191 55.6935 22.5265 56.6841 21.4019C57.8339 20.0979 58.5957 18.4967 58.8827 16.7802C58.893 16.7516 58.8933 16.7203 58.8834 16.6915C58.8736 16.6627 58.8541 16.6381 58.8284 16.6219C58.5546 16.4511 58.256 16.5526 57.9697 16.555C57.7674 16.555 57.8093 16.7629 57.7699 16.9113C57.466 18.1609 56.8426 19.3094 55.9611 20.2439C55.1715 21.0406 54.256 21.6839 53.0938 21.8743C52.9408 21.8991 52.8149 21.956 52.7631 21.7977C52.7113 21.6393 52.9136 21.6319 53.0099 21.5824C54.4521 20.7796 55.5374 19.4589 56.0475 17.8861C56.1782 17.4903 56.1462 17.0796 56.2942 16.6936C56.3534 16.5402 56.2942 16.4462 56.0845 16.4462C55.4404 16.4462 54.7988 16.3126 54.1499 16.3547C53.9835 16.3648 53.8166 16.3465 53.6564 16.3002C53.5071 16.2446 53.3463 16.2281 53.1889 16.2523C53.0315 16.2764 52.8828 16.3405 52.7571 16.4383C52.6313 16.5362 52.5325 16.6646 52.4701 16.8115C52.4077 16.9583 52.3837 17.1187 52.4004 17.2775C52.5781 20.3132 52.4448 23.3489 52.4867 26.3847C52.4867 27.0255 52.4867 27.0403 51.8673 26.9735C50.6088 26.8809 49.365 26.6427 48.161 26.2634C44.736 25.0684 42.6238 22.6859 41.7452 19.18C41.5898 18.559 41.6145 17.9158 41.4738 17.2948C41.4417 17.1587 41.4467 16.9806 41.6071 16.9386C41.8415 16.8767 41.7674 17.134 41.7946 17.2182C42.2051 18.5684 42.8041 19.8537 43.5738 21.0357C44.868 23.0283 46.8547 24.4674 49.1481 25.0734C49.7291 25.2645 50.3422 25.3385 50.9519 25.2911C51.0901 25.2738 51.3492 25.4346 51.3417 25.1352C51.3343 24.8358 51.5219 24.482 51.0777 24.3732C50.4812 24.2247 49.8958 24.0345 49.3257 23.8042C47.211 22.9655 45.4566 21.6789 44.3757 19.6279C43.9803 18.8187 43.7297 17.9461 43.6355 17.0499C43.6355 16.9732 43.5861 16.8593 43.7243 16.8248C43.8625 16.7901 43.9069 16.8866 43.9464 16.993C44.4023 18.1456 45.0798 19.1972 45.9402 20.0881C46.8598 21.0616 47.9809 21.8217 49.2246 22.3147C49.851 22.5706 50.5066 22.7477 51.1764 22.8418C51.29 22.8591 51.3393 22.8838 51.359 22.7551C51.3788 22.6265 51.4355 22.4311 51.4504 22.2603C51.4775 21.9857 51.4504 21.8249 51.0752 21.7309C49.7111 21.4266 48.4681 20.722 47.5047 19.7071C46.8158 18.9863 46.3193 18.103 46.0611 17.1389C46.0266 17.0103 46.0044 16.8247 46.1623 16.7728C46.2832 16.7332 46.3621 16.8841 46.4091 16.9881C46.8321 17.7703 47.4148 18.4542 48.1194 18.9952C48.8239 19.5362 49.6345 19.922 50.4979 20.1277C50.7446 20.1919 51.0037 20.1277 51.2603 20.2464C51.4528 20.338 51.5491 20.1425 51.5367 19.9421C51.4923 19.1405 51.6946 18.3463 51.633 17.5422C51.6214 17.4032 51.6296 17.2632 51.6576 17.1266C51.685 17.0345 51.6898 16.937 51.672 16.8426C51.654 16.7482 51.6137 16.6594 51.5545 16.5838C51.4953 16.5082 51.4188 16.448 51.3316 16.408C51.2443 16.3682 51.1488 16.3499 51.053 16.3547C50.0191 16.3225 48.9926 16.471 47.9562 16.4561C45.7674 16.4264 43.5787 16.4413 41.39 16.4561C41.0963 16.4561 40.9606 16.3967 41.0099 16.08C41.1801 14.9766 41.2567 13.8534 41.5577 12.7746C41.9257 11.4264 42.5574 10.1649 43.4158 9.06351C44.7706 7.35885 46.5422 6.342 48.62 5.80512C49.3301 5.65667 50.0476 5.546 50.7693 5.47359C50.8631 5.45874 51.0308 5.38205 51.0679 5.57998C51.1049 5.7779 50.9248 5.73585 50.8211 5.76801C49.5704 6.14676 48.3736 6.6856 47.2604 7.37122C45.4771 8.44024 44.0908 10.0639 43.3122 11.9953C42.9254 12.9401 42.7155 13.9482 42.6928 14.9692C42.6928 15.1078 42.5892 15.3699 42.8952 15.313C43.1419 15.2686 43.4997 15.5234 43.6206 15.0656C43.9869 13.639 44.5829 12.2819 45.385 11.0478C46.5056 9.34727 48.237 8.14561 50.219 7.69285C50.4362 7.63842 50.673 7.72007 50.8951 7.60131C50.9593 7.56667 51.1147 7.52956 51.1591 7.68296C51.2036 7.83635 51.0974 7.86357 50.9938 7.90562C50.4688 8.12568 49.9656 8.3949 49.4911 8.70971C47.3492 10.0878 45.9057 11.9755 45.2962 14.467C45.2962 14.5263 45.2813 14.5881 45.264 14.6451C45.1012 15.2488 45.2172 15.3872 45.834 15.417C46.0611 15.417 46.1721 15.3774 46.2462 15.1102C46.4506 14.2799 46.7837 13.4867 47.2333 12.7598C48.0587 11.4184 49.3598 10.4399 50.8753 10.021C50.9998 10.0047 51.126 10.0047 51.2505 10.021C51.2505 10.3006 51.0382 10.35 50.8779 10.4465C50.0963 10.9035 49.4194 11.5202 48.8914 12.2569C48.3633 12.9935 47.9959 13.8334 47.8131 14.7218C47.8094 14.7679 47.8094 14.8142 47.8131 14.8603C47.7811 15.5308 47.786 15.4689 48.4472 15.5456C49.3158 15.6471 50.1944 15.5308 51.0555 15.709C51.1764 15.7337 51.6305 15.2141 51.6305 15.0285C51.6305 13.2744 51.7119 11.5153 51.6083 9.76614C51.5194 8.26437 51.6083 6.76755 51.5342 5.27071C51.5194 4.96392 51.6946 4.99608 51.8822 5.00598C53.3193 5.05964 54.7409 5.32387 56.1018 5.79027C57.6016 6.29085 58.9506 7.16415 60.0227 8.3287C61.2148 9.65094 62.0193 11.2778 62.3472 13.0294C62.4695 13.5483 62.5308 14.0797 62.5298 14.6129C62.5225 14.7589 62.5742 14.9271 62.3843 15.0385Z" fill="black"/>
</svg>
