<svg width="16" height="16" viewBox="0 0 16 16" fill="none" xmlns="http://www.w3.org/2000/svg">
<g clip-path="url(#clip0)">
<path fill-rule="evenodd" clip-rule="evenodd" d="M6.54495 9.5097C6.54495 9.83242 6.69967 10.11 6.92955 10.3028V11.9746C6.92955 12.3416 7.22664 12.6378 7.59267 12.6378C7.9587 12.6378 8.25576 12.3416 8.25576 11.9746V10.3019C8.48564 10.11 8.63948 9.83242 8.63948 9.5097C8.63948 8.93148 8.17089 8.46289 7.59267 8.46289C7.01442 8.46289 6.54495 8.93148 6.54495 9.5097Z" fill="#FAFAFA"/>
<path fill-rule="evenodd" clip-rule="evenodd" d="M12.0205 14.4177C12.0205 14.5582 11.9224 14.6758 11.8056 14.6758H3.38077C3.26317 14.6758 3.16414 14.5582 3.16414 14.4177V6.07855C3.16414 5.93887 3.26317 5.82037 3.38077 5.82037H11.8056C11.9224 5.82037 12.0205 5.93887 12.0205 6.07855V14.4177ZM5.00758 3.92215C5.00758 2.49693 6.16758 1.33696 7.5928 1.33696C9.01802 1.33696 10.178 2.49696 10.178 3.92215V4.49418H5.00758V3.92215ZM11.5042 4.49418V3.92215C11.5041 1.76487 9.75005 0.0107422 7.59277 0.0107422C5.43633 0.0107422 3.68133 1.76487 3.68133 3.92215V4.49418H3.3807C2.5302 4.49418 1.83789 5.20502 1.83789 6.07855V14.4177C1.83789 15.2912 2.5302 16.0021 3.3807 16.0021H11.8056C12.6553 16.0021 13.3467 15.2912 13.3467 14.4177V6.07855C13.3467 5.20502 12.6553 4.49418 11.8056 4.49418H11.5041H11.5042Z" fill="#FAFAFA"/>
</g>
<defs>
<clipPath id="clip0">
<rect width="16" height="16" fill="white"/>
</clipPath>
</defs>
</svg>
