<svg width="181" height="37" viewBox="0 0 181 37" fill="none" xmlns="http://www.w3.org/2000/svg">
<path fill-rule="evenodd" clip-rule="evenodd" d="M7.27007 35.4134V21.8596H0.774353V16.34H7.27007V14.3788H0.774353V8.98302H7.27007V0.193935H22.0254C25.8928 0.193935 28.7559 1.08716 30.6122 2.87362C32.4685 4.64309 33.3979 7.37375 33.3979 11.0656C33.3979 13.8642 32.7133 16.1143 31.3417 17.8158C29.9701 19.5003 28.0639 20.6727 25.6155 21.3305L33.9175 35.4134H26.2401L18.6151 21.8863H14.193V35.4134H7.27007ZM14.193 16.3497H22.9373C25.1058 16.3497 26.1901 15.1774 26.1901 12.8351V9.21846C26.1901 8.03882 25.9478 7.19656 25.4606 6.68926C24.9934 6.16741 24.1515 5.90526 22.9373 5.90526H14.193V16.3497ZM34.2148 22.1654C34.2148 20.0926 34.5096 18.2139 35.0992 16.5269C35.6889 14.8254 36.5133 13.3739 37.5726 12.1773C38.6494 10.9637 39.9411 10.0292 41.4501 9.37138C42.9591 8.71359 44.633 8.38591 46.4718 8.38591C48.3105 8.38591 49.977 8.70631 51.4685 9.34711C52.9775 9.9879 54.2616 10.8714 55.3209 12.0025C56.3952 13.1142 57.2122 14.4468 57.7668 15.9978C58.3389 17.5488 58.6263 19.226 58.6263 21.0295V24.2917H41.1653V26.0369C41.1653 27.6219 41.6949 28.8525 42.7517 29.7288C43.826 30.588 45.0927 31.0176 46.5517 31.0176C48.0082 31.0176 49.1975 30.6463 50.1169 29.9059C51.0363 29.1632 51.5834 28.1195 51.7558 26.7699H58.4189C57.9842 29.702 56.71 31.9861 54.5939 33.6221C52.4953 35.241 49.7871 36.0493 46.4743 36.0493C44.548 36.0493 42.8217 35.7119 41.2952 35.0372C39.7862 34.3624 38.502 33.4182 37.4427 32.2045C36.4009 30.9909 35.6039 29.5321 35.0493 27.8306C34.4921 26.1267 34.2148 24.2383 34.2148 22.1654ZM41.1628 19.2576H51.8057V18.3231C51.8057 16.874 51.3036 15.6944 50.2967 14.7842C49.2899 13.8739 48.0157 13.42 46.4718 13.42C44.9453 13.42 43.6786 13.8764 42.6718 14.7842C41.6649 15.6944 41.1628 16.874 41.1628 18.3231V19.2576ZM60.5875 27.0199H67.2506C67.5279 29.6826 69.1668 31.0152 72.1698 31.0152C73.454 31.0152 74.5458 30.787 75.4477 30.3331C76.3496 29.8622 76.8018 29.1195 76.8018 28.1073C76.8018 27.1462 76.4295 26.4544 75.6825 26.0345C74.9355 25.5951 73.9562 25.2505 72.742 24.998L68.0575 24.0126C63.513 23.0514 61.2395 20.5319 61.2395 16.4541C61.2395 15.3084 61.4744 14.2453 61.9416 13.2695C62.4263 12.2914 63.1208 11.4418 64.0227 10.7161C64.9246 9.99033 66.0264 9.42721 67.328 9.02185C68.6297 8.59951 70.1112 8.39077 71.7776 8.39077C74.8656 8.39077 77.3989 9.11652 79.3751 10.5656C81.3538 12.0147 82.4106 14.2065 82.5505 17.1386H75.8874C75.8174 15.891 75.4102 14.9638 74.6632 14.357C73.9187 13.7332 72.9543 13.4225 71.7751 13.4225C70.6308 13.4225 69.694 13.6676 68.9644 14.1555C68.2524 14.6264 67.8977 15.2939 67.8977 16.1531C67.8977 17.0124 68.1675 17.6532 68.7046 18.0755C69.2592 18.4809 69.9788 18.7746 70.8657 18.9615L76.2521 20.0998C77.2415 20.3013 78.1784 20.6047 79.0628 21.0101C79.9647 21.3984 80.7367 21.9033 81.3788 22.5271C82.0208 23.1509 82.523 23.8912 82.8878 24.7529C83.27 25.6121 83.4599 26.6316 83.4599 27.8112C83.4599 28.9569 83.2076 30.0273 82.7054 31.0225C82.2032 32.0177 81.4737 32.8842 80.5193 33.6269C79.565 34.3672 78.3857 34.9595 76.9792 35.3964C75.5751 35.8333 73.9687 36.0542 72.1648 36.0542C68.5397 36.0542 65.7366 35.2799 63.7604 33.7289C61.7842 32.1511 60.7249 29.9181 60.5875 27.0199ZM85.5011 22.1654C85.5011 20.0926 85.7959 18.2139 86.3855 16.5269C86.9751 14.8254 87.7995 13.3739 88.8563 12.1773C89.9331 10.9637 91.2248 10.0292 92.7338 9.37138C94.2428 8.71359 95.9167 8.38591 97.7555 8.38591C99.5943 8.38591 101.261 8.70631 102.752 9.34711C104.261 9.9879 105.545 10.8714 106.605 12.0025C107.681 13.1142 108.496 14.4468 109.051 15.9978C109.623 17.5488 109.91 19.226 109.91 21.0295V24.2917H92.449V26.0369C92.449 27.6219 92.9786 28.8525 94.0354 29.7288C95.1122 30.588 96.3789 31.0176 97.8354 31.0176C99.292 31.0176 100.481 30.6463 101.401 29.9059C102.32 29.1632 102.867 28.1195 103.039 26.7699H109.703C109.268 29.702 107.994 31.9861 105.878 33.6221C103.779 35.241 101.073 36.0493 97.758 36.0493C95.8317 36.0493 94.1054 35.7119 92.5789 35.0372C91.0699 34.3624 89.7857 33.4182 88.7264 32.2045C87.6846 30.9909 86.8876 29.5321 86.333 27.8306C85.7784 26.1267 85.5011 24.2383 85.5011 22.1654ZM92.449 19.2576H103.092V18.3231C103.092 16.874 102.59 15.6944 101.583 14.7842C100.576 13.8739 99.302 13.42 97.758 13.42C96.2315 13.42 94.9648 13.8764 93.958 14.7842C92.9511 15.6944 92.449 16.874 92.449 18.3231V19.2576ZM112.576 35.4134V9.017H127.748V14.073H119.239V35.4109H112.576V35.4134ZM129.712 9.017H136.842L142.776 28.1559H142.983L149.047 9.017H156.1L146.548 35.4134H139.261L129.712 9.017ZM156.247 22.1654C156.247 20.0926 156.542 18.2139 157.131 16.5269C157.721 14.8254 158.545 13.3739 159.602 12.1773C160.679 10.9637 161.971 10.0292 163.48 9.37138C164.989 8.71359 166.663 8.38591 168.501 8.38591C170.34 8.38591 172.007 8.70631 173.498 9.34711C175.007 9.9879 176.291 10.8714 177.348 12.0025C178.425 13.1142 179.239 14.4468 179.794 15.9978C180.366 17.5488 180.653 19.226 180.653 21.0295V24.2917H163.192V26.0369C163.192 27.6219 163.722 28.8525 164.779 29.7288C165.856 30.588 167.122 31.0176 168.579 31.0176C170.035 31.0176 171.225 30.6463 172.144 29.9059C173.063 29.1632 173.611 28.1195 173.783 26.7699H180.446C180.011 29.702 178.737 31.9861 176.621 33.6221C174.522 35.241 171.817 36.0493 168.501 36.0493C166.575 36.0493 164.849 35.7119 163.322 35.0372C161.813 34.3624 160.529 33.4182 159.47 32.2045C158.428 30.9909 157.631 29.5321 157.076 27.8306C156.524 26.1267 156.247 24.2383 156.247 22.1654ZM163.195 19.2576H173.838V18.3231C173.838 16.874 173.336 15.6944 172.329 14.7842C171.322 13.8739 170.048 13.42 168.504 13.42C166.977 13.42 165.711 13.8764 164.704 14.7842C163.697 15.6944 163.195 16.874 163.195 18.3231V19.2576Z" fill="#111111"/>
</svg>
